<mxfile host="app.diagrams.net" modified="2022-04-21T14:16:17.668Z" agent="5.0 (Macintosh; Intel Mac OS X 10_15_7) AppleWebKit/605.1.15 (KHTML, like Gecko) Version/15.4 Safari/605.1.15" etag="sduGnBQ2K2TzPL26fKQb" version="17.4.6" type="github">
  <diagram id="4tHRqjT4SER2oBwaS5Ux" name="Page-1">
    <mxGraphModel dx="894" dy="585" grid="1" gridSize="10" guides="1" tooltips="1" connect="1" arrows="1" fold="1" page="1" pageScale="1" pageWidth="827" pageHeight="1169" math="0" shadow="0">
      <root>
        <mxCell id="0" />
        <mxCell id="1" parent="0" />
        <mxCell id="EQcA2PhLmgyI1PLI6B75-61" value="Future Plan" style="rounded=1;arcSize=10;strokeColor=none;fillColor=#CCCCCC;gradientColor=none;labelBackgroundColor=none;fontSize=12;fontColor=#000000;horizontal=1;verticalAlign=middle;flipH=1;flipV=1;" vertex="1" parent="1">
          <mxGeometry x="580" y="196" width="326" height="830" as="geometry" />
        </mxCell>
        <mxCell id="EQcA2PhLmgyI1PLI6B75-12" value="" style="rounded=1;arcSize=10;strokeColor=none;fillColor=#E6FFCC;gradientColor=none;labelBackgroundColor=#FFFFFF;fontSize=8;fontColor=#FFFFFF;" vertex="1" parent="1">
          <mxGeometry x="214" y="190" width="326" height="830" as="geometry" />
        </mxCell>
        <mxCell id="W5IorMKZYv1s7FYucmOT-13" value="" style="rounded=1;arcSize=10;dashed=1;strokeColor=#F59D56;fillColor=none;gradientColor=none;dashPattern=8 4;strokeWidth=2;fontSize=8;" parent="1" vertex="1">
          <mxGeometry x="190" y="270" width="760" height="740" as="geometry" />
        </mxCell>
        <mxCell id="W5IorMKZYv1s7FYucmOT-12" value="&lt;font style=&quot;font-size: 8px&quot;&gt;Kubernetes&lt;br&gt;Cluster&lt;br&gt;&lt;/font&gt;" style="dashed=0;html=1;shape=mxgraph.aws3.instance;fillColor=#F58536;gradientColor=none;dashed=0;" parent="1" vertex="1">
          <mxGeometry x="200" y="240" width="50" height="51" as="geometry" />
        </mxCell>
        <mxCell id="W5IorMKZYv1s7FYucmOT-14" value="" style="rounded=1;arcSize=10;dashed=1;strokeColor=#ff0000;fillColor=none;gradientColor=none;dashPattern=8 4;strokeWidth=2;fontSize=8;" parent="1" vertex="1">
          <mxGeometry x="240" y="320" width="260" height="260" as="geometry" />
        </mxCell>
        <mxCell id="W5IorMKZYv1s7FYucmOT-16" value="&lt;font color=&quot;#ffffff&quot; style=&quot;font-size: 8px&quot;&gt;home&lt;br&gt;stack&lt;/font&gt;" style="sketch=0;html=1;dashed=0;whitespace=wrap;fillColor=#2875E2;strokeColor=#ffffff;points=[[0.005,0.63,0],[0.1,0.2,0],[0.9,0.2,0],[0.5,0,0],[0.995,0.63,0],[0.72,0.99,0],[0.5,1,0],[0.28,0.99,0]];shape=mxgraph.kubernetes.icon;prIcon=ns;fontSize=8;" parent="1" vertex="1">
          <mxGeometry x="260" y="291" width="50" height="48" as="geometry" />
        </mxCell>
        <mxCell id="EQcA2PhLmgyI1PLI6B75-6" value="" style="edgeStyle=orthogonalEdgeStyle;rounded=0;orthogonalLoop=1;jettySize=auto;html=1;fontSize=8;fontColor=#FFFFFF;exitX=0.005;exitY=0.63;exitDx=0;exitDy=0;exitPerimeter=0;" edge="1" parent="1" source="EQcA2PhLmgyI1PLI6B75-1">
          <mxGeometry relative="1" as="geometry">
            <mxPoint x="370" y="490" as="targetPoint" />
            <Array as="points">
              <mxPoint x="370" y="390" />
            </Array>
          </mxGeometry>
        </mxCell>
        <mxCell id="EQcA2PhLmgyI1PLI6B75-49" style="edgeStyle=orthogonalEdgeStyle;rounded=0;orthogonalLoop=1;jettySize=auto;html=1;fontSize=13;fontColor=#000000;" edge="1" parent="1" source="EQcA2PhLmgyI1PLI6B75-1" target="EQcA2PhLmgyI1PLI6B75-3">
          <mxGeometry relative="1" as="geometry" />
        </mxCell>
        <mxCell id="EQcA2PhLmgyI1PLI6B75-1" value="&lt;font style=&quot;font-size: 8px&quot;&gt;stmt-parser&lt;/font&gt;" style="sketch=0;html=1;dashed=0;whitespace=wrap;fillColor=#2875E2;strokeColor=#ffffff;points=[[0.005,0.63,0],[0.1,0.2,0],[0.9,0.2,0],[0.5,0,0],[0.995,0.63,0],[0.72,0.99,0],[0.5,1,0],[0.28,0.99,0]];shape=mxgraph.kubernetes.icon;prIcon=pod" vertex="1" parent="1">
          <mxGeometry x="415" y="360" width="50" height="48" as="geometry" />
        </mxCell>
        <mxCell id="EQcA2PhLmgyI1PLI6B75-3" value="&lt;span style=&quot;font-size: 8px&quot;&gt;DB&lt;/span&gt;" style="sketch=0;html=1;dashed=0;whitespace=wrap;fillColor=#2875E2;strokeColor=#ffffff;points=[[0.005,0.63,0],[0.1,0.2,0],[0.9,0.2,0],[0.5,0,0],[0.995,0.63,0],[0.72,0.99,0],[0.5,1,0],[0.28,0.99,0]];shape=mxgraph.kubernetes.icon;prIcon=pod" vertex="1" parent="1">
          <mxGeometry x="415" y="440" width="50" height="48" as="geometry" />
        </mxCell>
        <mxCell id="EQcA2PhLmgyI1PLI6B75-5" value="" style="edgeStyle=orthogonalEdgeStyle;rounded=0;orthogonalLoop=1;jettySize=auto;html=1;fontSize=8;fontColor=#FFFFFF;" edge="1" parent="1" source="EQcA2PhLmgyI1PLI6B75-4" target="EQcA2PhLmgyI1PLI6B75-1">
          <mxGeometry relative="1" as="geometry" />
        </mxCell>
        <mxCell id="EQcA2PhLmgyI1PLI6B75-46" value="" style="edgeStyle=orthogonalEdgeStyle;rounded=0;orthogonalLoop=1;jettySize=auto;html=1;fontSize=13;fontColor=#000000;" edge="1" parent="1" source="EQcA2PhLmgyI1PLI6B75-4" target="EQcA2PhLmgyI1PLI6B75-29">
          <mxGeometry relative="1" as="geometry">
            <Array as="points">
              <mxPoint x="320" y="524" />
            </Array>
          </mxGeometry>
        </mxCell>
        <mxCell id="EQcA2PhLmgyI1PLI6B75-4" value="&lt;font style=&quot;font-size: 8px&quot;&gt;dashboard/&lt;br&gt;rev proxy&lt;/font&gt;" style="sketch=0;html=1;dashed=0;whitespace=wrap;fillColor=#2875E2;strokeColor=#ffffff;points=[[0.005,0.63,0],[0.1,0.2,0],[0.9,0.2,0],[0.5,0,0],[0.995,0.63,0],[0.72,0.99,0],[0.5,1,0],[0.28,0.99,0]];shape=mxgraph.kubernetes.icon;prIcon=pod" vertex="1" parent="1">
          <mxGeometry x="290" y="360" width="50" height="48" as="geometry" />
        </mxCell>
        <mxCell id="EQcA2PhLmgyI1PLI6B75-7" value="" style="verticalLabelPosition=bottom;html=1;verticalAlign=top;align=center;strokeColor=none;fillColor=#00BEF2;shape=mxgraph.azure.mysql_database;labelBackgroundColor=#FFFFFF;fontSize=8;fontColor=#FFFFFF;" vertex="1" parent="1">
          <mxGeometry x="450" y="470" width="20" height="30" as="geometry" />
        </mxCell>
        <mxCell id="EQcA2PhLmgyI1PLI6B75-8" value="" style="aspect=fixed;perimeter=ellipsePerimeter;html=1;align=center;shadow=0;dashed=0;spacingTop=3;image;image=img/lib/active_directory/web_server.svg;labelBackgroundColor=#FFFFFF;fontSize=8;fontColor=#FFFFFF;" vertex="1" parent="1">
          <mxGeometry x="330" y="390" width="24" height="30" as="geometry" />
        </mxCell>
        <mxCell id="EQcA2PhLmgyI1PLI6B75-10" value="&lt;font color=&quot;#000000&quot;&gt;Private Repo&lt;/font&gt;" style="dashed=0;outlineConnect=0;html=1;align=center;labelPosition=center;verticalLabelPosition=bottom;verticalAlign=top;shape=mxgraph.webicons.github;gradientColor=#DFDEDE;labelBackgroundColor=#FFFFFF;fontSize=8;fontColor=#FFFFFF;" vertex="1" parent="1">
          <mxGeometry x="342.5" y="90" width="55" height="40" as="geometry" />
        </mxCell>
        <mxCell id="EQcA2PhLmgyI1PLI6B75-15" value="" style="edgeStyle=orthogonalEdgeStyle;rounded=0;orthogonalLoop=1;jettySize=auto;html=1;fontSize=8;fontColor=#FFFFFF;" edge="1" parent="1" source="EQcA2PhLmgyI1PLI6B75-14" target="EQcA2PhLmgyI1PLI6B75-10">
          <mxGeometry relative="1" as="geometry" />
        </mxCell>
        <mxCell id="EQcA2PhLmgyI1PLI6B75-14" value="&lt;span style=&quot;background-color: rgb(219 , 219 , 219)&quot;&gt;&lt;font style=&quot;font-size: 8px&quot;&gt;Bank Statements&lt;/font&gt;&lt;/span&gt;" style="sketch=0;outlineConnect=0;fontColor=#232F3E;gradientColor=none;fillColor=#3F8624;strokeColor=none;dashed=0;verticalLabelPosition=bottom;verticalAlign=top;align=center;html=1;fontSize=12;fontStyle=0;aspect=fixed;pointerEvents=1;shape=mxgraph.aws4.file_system;labelBackgroundColor=#FFFFFF;" vertex="1" parent="1">
          <mxGeometry x="359.32" y="210" width="21.37" height="20" as="geometry" />
        </mxCell>
        <mxCell id="EQcA2PhLmgyI1PLI6B75-16" value="" style="outlineConnect=0;dashed=0;verticalLabelPosition=bottom;verticalAlign=top;align=center;html=1;shape=mxgraph.aws3.internet_2;fillColor=#D2D3D3;gradientColor=none;labelBackgroundColor=#FFFFFF;fontSize=8;fontColor=#FFFFFF;" vertex="1" parent="1">
          <mxGeometry x="359.32000000000005" y="160" width="30" height="20" as="geometry" />
        </mxCell>
        <mxCell id="EQcA2PhLmgyI1PLI6B75-27" value="" style="edgeStyle=orthogonalEdgeStyle;rounded=0;orthogonalLoop=1;jettySize=auto;html=1;fontSize=8;fontColor=#000000;" edge="1" parent="1" source="EQcA2PhLmgyI1PLI6B75-17">
          <mxGeometry relative="1" as="geometry">
            <mxPoint x="370" y="230" as="targetPoint" />
          </mxGeometry>
        </mxCell>
        <mxCell id="EQcA2PhLmgyI1PLI6B75-17" value="" style="sketch=0;html=1;dashed=0;whitespace=wrap;fillColor=#2875E2;strokeColor=#ffffff;points=[[0.005,0.63,0],[0.1,0.2,0],[0.9,0.2,0],[0.5,0,0],[0.995,0.63,0],[0.72,0.99,0],[0.5,1,0],[0.28,0.99,0]];shape=mxgraph.kubernetes.icon;prIcon=vol;labelBackgroundColor=#FFFFFF;fontSize=8;fontColor=#000000;" vertex="1" parent="1">
          <mxGeometry x="355" y="270" width="30" height="38" as="geometry" />
        </mxCell>
        <mxCell id="EQcA2PhLmgyI1PLI6B75-21" value="&lt;span style=&quot;background-color: rgb(219 , 219 , 219)&quot;&gt;&lt;font style=&quot;font-size: 8px&quot;&gt;DB Mount&lt;/font&gt;&lt;/span&gt;" style="sketch=0;outlineConnect=0;fontColor=#232F3E;gradientColor=none;fillColor=#3F8624;strokeColor=none;dashed=0;verticalLabelPosition=bottom;verticalAlign=top;align=center;html=1;fontSize=12;fontStyle=0;aspect=fixed;pointerEvents=1;shape=mxgraph.aws4.file_system;labelBackgroundColor=#FFFFFF;" vertex="1" parent="1">
          <mxGeometry x="448.63" y="210" width="21.37" height="20" as="geometry" />
        </mxCell>
        <mxCell id="EQcA2PhLmgyI1PLI6B75-28" value="" style="edgeStyle=orthogonalEdgeStyle;rounded=0;orthogonalLoop=1;jettySize=auto;html=1;fontSize=8;fontColor=#000000;" edge="1" parent="1" source="EQcA2PhLmgyI1PLI6B75-22" target="EQcA2PhLmgyI1PLI6B75-21">
          <mxGeometry relative="1" as="geometry" />
        </mxCell>
        <mxCell id="EQcA2PhLmgyI1PLI6B75-22" value="" style="sketch=0;html=1;dashed=0;whitespace=wrap;fillColor=#2875E2;strokeColor=#ffffff;points=[[0.005,0.63,0],[0.1,0.2,0],[0.9,0.2,0],[0.5,0,0],[0.995,0.63,0],[0.72,0.99,0],[0.5,1,0],[0.28,0.99,0]];shape=mxgraph.kubernetes.icon;prIcon=vol;labelBackgroundColor=#FFFFFF;fontSize=8;fontColor=#000000;" vertex="1" parent="1">
          <mxGeometry x="443.63" y="270" width="30" height="38" as="geometry" />
        </mxCell>
        <mxCell id="EQcA2PhLmgyI1PLI6B75-25" style="edgeStyle=orthogonalEdgeStyle;rounded=0;orthogonalLoop=1;jettySize=auto;html=1;fontSize=8;fontColor=#000000;exitX=0.5;exitY=0.375;exitDx=0;exitDy=0;exitPerimeter=0;dashed=1;" edge="1" parent="1" source="EQcA2PhLmgyI1PLI6B75-23" target="EQcA2PhLmgyI1PLI6B75-17">
          <mxGeometry relative="1" as="geometry">
            <Array as="points">
              <mxPoint x="465" y="350" />
              <mxPoint x="370" y="350" />
            </Array>
          </mxGeometry>
        </mxCell>
        <mxCell id="EQcA2PhLmgyI1PLI6B75-23" value="" style="sketch=0;html=1;dashed=0;whitespace=wrap;fillColor=#2875E2;strokeColor=#ffffff;points=[[0.005,0.63,0],[0.1,0.2,0],[0.9,0.2,0],[0.5,0,0],[0.995,0.63,0],[0.72,0.99,0],[0.5,1,0],[0.28,0.99,0]];shape=mxgraph.kubernetes.icon;prIcon=pvc;labelBackgroundColor=none;fontSize=8;fontColor=#000000;" vertex="1" parent="1">
          <mxGeometry x="450" y="350" width="30" height="40" as="geometry" />
        </mxCell>
        <mxCell id="EQcA2PhLmgyI1PLI6B75-26" style="edgeStyle=orthogonalEdgeStyle;rounded=0;orthogonalLoop=1;jettySize=auto;html=1;fontSize=8;fontColor=#000000;exitX=0.6;exitY=0.45;exitDx=0;exitDy=0;exitPerimeter=0;dashed=1;" edge="1" parent="1" source="EQcA2PhLmgyI1PLI6B75-24" target="EQcA2PhLmgyI1PLI6B75-22">
          <mxGeometry relative="1" as="geometry">
            <Array as="points">
              <mxPoint x="465" y="448" />
              <mxPoint x="465" y="410" />
              <mxPoint x="490" y="410" />
              <mxPoint x="490" y="289" />
            </Array>
          </mxGeometry>
        </mxCell>
        <mxCell id="EQcA2PhLmgyI1PLI6B75-24" value="" style="sketch=0;html=1;dashed=0;whitespace=wrap;fillColor=#2875E2;strokeColor=#ffffff;points=[[0.005,0.63,0],[0.1,0.2,0],[0.9,0.2,0],[0.5,0,0],[0.995,0.63,0],[0.72,0.99,0],[0.5,1,0],[0.28,0.99,0]];shape=mxgraph.kubernetes.icon;prIcon=pvc;labelBackgroundColor=none;fontSize=8;fontColor=#000000;" vertex="1" parent="1">
          <mxGeometry x="450" y="430" width="30" height="40" as="geometry" />
        </mxCell>
        <mxCell id="EQcA2PhLmgyI1PLI6B75-29" value="&lt;span style=&quot;font-size: 8px&quot;&gt;Jaeger&lt;br&gt;all-in-one&lt;br&gt;&lt;/span&gt;" style="sketch=0;html=1;dashed=0;whitespace=wrap;fillColor=#2875E2;strokeColor=#ffffff;points=[[0.005,0.63,0],[0.1,0.2,0],[0.9,0.2,0],[0.5,0,0],[0.995,0.63,0],[0.72,0.99,0],[0.5,1,0],[0.28,0.99,0]];shape=mxgraph.kubernetes.icon;prIcon=pod" vertex="1" parent="1">
          <mxGeometry x="349.32" y="500" width="50" height="48" as="geometry" />
        </mxCell>
        <mxCell id="EQcA2PhLmgyI1PLI6B75-36" value="" style="shape=image;verticalLabelPosition=bottom;labelBackgroundColor=default;verticalAlign=top;aspect=fixed;imageAspect=0;image=https://cdn.pimylifeup.com/wp-content/uploads/2021/07/Raspberry-Pi-64-bit-Thumbnail.jpg;" vertex="1" parent="1">
          <mxGeometry x="188.53" y="180" width="71.47" height="40" as="geometry" />
        </mxCell>
        <mxCell id="EQcA2PhLmgyI1PLI6B75-41" value="&lt;font style=&quot;font-size: 13px&quot;&gt;jgte - Master Node&lt;/font&gt;" style="text;html=1;strokeColor=none;fillColor=none;align=center;verticalAlign=middle;whiteSpace=wrap;rounded=0;labelBackgroundColor=none;fontSize=8;fontColor=#000000;" vertex="1" parent="1">
          <mxGeometry x="330.75" y="965" width="92.5" height="30" as="geometry" />
        </mxCell>
        <mxCell id="EQcA2PhLmgyI1PLI6B75-42" value="" style="shape=image;verticalLabelPosition=bottom;labelBackgroundColor=default;verticalAlign=top;aspect=fixed;imageAspect=0;image=https://d1rytvr7gmk1sx.cloudfront.net/wp-content/uploads/2016/07/nginxhero.jpg;" vertex="1" parent="1">
          <mxGeometry x="290" y="403" width="21.72" height="17" as="geometry" />
        </mxCell>
        <mxCell id="EQcA2PhLmgyI1PLI6B75-43" value="" style="shape=image;verticalLabelPosition=bottom;labelBackgroundColor=default;verticalAlign=top;aspect=fixed;imageAspect=0;image=https://www.jaegertracing.io/img/jaeger-icon-color.png;" vertex="1" parent="1">
          <mxGeometry x="389.32" y="530" width="28" height="28" as="geometry" />
        </mxCell>
        <mxCell id="EQcA2PhLmgyI1PLI6B75-50" value="" style="rounded=1;arcSize=10;dashed=1;strokeColor=#ff0000;fillColor=none;gradientColor=none;dashPattern=8 4;strokeWidth=2;fontSize=8;" vertex="1" parent="1">
          <mxGeometry x="247" y="617" width="260" height="100" as="geometry" />
        </mxCell>
        <mxCell id="EQcA2PhLmgyI1PLI6B75-51" value="&lt;font color=&quot;#ffffff&quot;&gt;&lt;span&gt;kube &lt;br&gt;system&lt;/span&gt;&lt;/font&gt;" style="sketch=0;html=1;dashed=0;whitespace=wrap;fillColor=#2875E2;strokeColor=#ffffff;points=[[0.005,0.63,0],[0.1,0.2,0],[0.9,0.2,0],[0.5,0,0],[0.995,0.63,0],[0.72,0.99,0],[0.5,1,0],[0.28,0.99,0]];shape=mxgraph.kubernetes.icon;prIcon=ns;fontSize=8;" vertex="1" parent="1">
          <mxGeometry x="260" y="587" width="50" height="48" as="geometry" />
        </mxCell>
        <mxCell id="EQcA2PhLmgyI1PLI6B75-52" value="" style="rounded=1;arcSize=10;dashed=1;strokeColor=#ff0000;fillColor=none;gradientColor=none;dashPattern=8 4;strokeWidth=2;fontSize=8;" vertex="1" parent="1">
          <mxGeometry x="250" y="770" width="260" height="100" as="geometry" />
        </mxCell>
        <mxCell id="EQcA2PhLmgyI1PLI6B75-53" value="&lt;font color=&quot;#ffffff&quot;&gt;&lt;span&gt;kubernetes&lt;br&gt;&lt;/span&gt;dashboard&lt;/font&gt;" style="sketch=0;html=1;dashed=0;whitespace=wrap;fillColor=#2875E2;strokeColor=#ffffff;points=[[0.005,0.63,0],[0.1,0.2,0],[0.9,0.2,0],[0.5,0,0],[0.995,0.63,0],[0.72,0.99,0],[0.5,1,0],[0.28,0.99,0]];shape=mxgraph.kubernetes.icon;prIcon=ns;fontSize=8;" vertex="1" parent="1">
          <mxGeometry x="263" y="740" width="50" height="48" as="geometry" />
        </mxCell>
        <mxCell id="EQcA2PhLmgyI1PLI6B75-54" value="" style="sketch=0;html=1;dashed=0;whitespace=wrap;fillColor=#2875E2;strokeColor=#ffffff;points=[[0.005,0.63,0],[0.1,0.2,0],[0.9,0.2,0],[0.5,0,0],[0.995,0.63,0],[0.72,0.99,0],[0.5,1,0],[0.28,0.99,0]];shape=mxgraph.kubernetes.icon;prIcon=master;labelBackgroundColor=none;fontSize=13;fontColor=#FFFFFF;" vertex="1" parent="1">
          <mxGeometry x="290" y="960" width="50" height="40" as="geometry" />
        </mxCell>
        <mxCell id="EQcA2PhLmgyI1PLI6B75-55" value="&lt;span style=&quot;font-size: 8px&quot;&gt;kube&lt;br&gt;dns&lt;br&gt;&lt;/span&gt;" style="sketch=0;html=1;dashed=0;whitespace=wrap;fillColor=#2875E2;strokeColor=#ffffff;points=[[0.005,0.63,0],[0.1,0.2,0],[0.9,0.2,0],[0.5,0,0],[0.995,0.63,0],[0.72,0.99,0],[0.5,1,0],[0.28,0.99,0]];shape=mxgraph.kubernetes.icon;prIcon=pod" vertex="1" parent="1">
          <mxGeometry x="263" y="643" width="50" height="48" as="geometry" />
        </mxCell>
        <mxCell id="EQcA2PhLmgyI1PLI6B75-56" value="&lt;span style=&quot;font-size: 8px&quot;&gt;matrix&lt;br&gt;server&lt;br&gt;&lt;/span&gt;" style="sketch=0;html=1;dashed=0;whitespace=wrap;fillColor=#2875E2;strokeColor=#ffffff;points=[[0.005,0.63,0],[0.1,0.2,0],[0.9,0.2,0],[0.5,0,0],[0.995,0.63,0],[0.72,0.99,0],[0.5,1,0],[0.28,0.99,0]];shape=mxgraph.kubernetes.icon;prIcon=pod" vertex="1" parent="1">
          <mxGeometry x="320" y="643" width="50" height="48" as="geometry" />
        </mxCell>
        <mxCell id="EQcA2PhLmgyI1PLI6B75-57" value="&lt;span style=&quot;font-size: 8px&quot;&gt;calico&lt;br&gt;node&lt;br&gt;&lt;/span&gt;" style="sketch=0;html=1;dashed=0;whitespace=wrap;fillColor=#2875E2;strokeColor=#ffffff;points=[[0.005,0.63,0],[0.1,0.2,0],[0.9,0.2,0],[0.5,0,0],[0.995,0.63,0],[0.72,0.99,0],[0.5,1,0],[0.28,0.99,0]];shape=mxgraph.kubernetes.icon;prIcon=pod" vertex="1" parent="1">
          <mxGeometry x="385" y="643" width="50" height="48" as="geometry" />
        </mxCell>
        <mxCell id="EQcA2PhLmgyI1PLI6B75-58" value="&lt;span style=&quot;font-size: 8px&quot;&gt;calico&lt;br&gt;kube controller&lt;br&gt;&lt;/span&gt;" style="sketch=0;html=1;dashed=0;whitespace=wrap;fillColor=#2875E2;strokeColor=#ffffff;points=[[0.005,0.63,0],[0.1,0.2,0],[0.9,0.2,0],[0.5,0,0],[0.995,0.63,0],[0.72,0.99,0],[0.5,1,0],[0.28,0.99,0]];shape=mxgraph.kubernetes.icon;prIcon=pod" vertex="1" parent="1">
          <mxGeometry x="440" y="643" width="50" height="48" as="geometry" />
        </mxCell>
        <mxCell id="EQcA2PhLmgyI1PLI6B75-59" value="&lt;span style=&quot;font-size: 8px&quot;&gt;dashboard&lt;br&gt;&lt;/span&gt;" style="sketch=0;html=1;dashed=0;whitespace=wrap;fillColor=#2875E2;strokeColor=#ffffff;points=[[0.005,0.63,0],[0.1,0.2,0],[0.9,0.2,0],[0.5,0,0],[0.995,0.63,0],[0.72,0.99,0],[0.5,1,0],[0.28,0.99,0]];shape=mxgraph.kubernetes.icon;prIcon=pod" vertex="1" parent="1">
          <mxGeometry x="320" y="796" width="50" height="48" as="geometry" />
        </mxCell>
        <mxCell id="EQcA2PhLmgyI1PLI6B75-60" value="&lt;span style=&quot;font-size: 8px&quot;&gt;matrix&lt;br&gt;scrapper&lt;br&gt;&lt;/span&gt;" style="sketch=0;html=1;dashed=0;whitespace=wrap;fillColor=#2875E2;strokeColor=#ffffff;points=[[0.005,0.63,0],[0.1,0.2,0],[0.9,0.2,0],[0.5,0,0],[0.995,0.63,0],[0.72,0.99,0],[0.5,1,0],[0.28,0.99,0]];shape=mxgraph.kubernetes.icon;prIcon=pod" vertex="1" parent="1">
          <mxGeometry x="400" y="796" width="50" height="48" as="geometry" />
        </mxCell>
      </root>
    </mxGraphModel>
  </diagram>
</mxfile>
